<svg width="1760" height="1060" viewBox="0 0 1760 1060" xmlns="http://www.w3.org/2000/svg"><defs><linearGradient id="bgGrad" x1="0%" y1="0%" x2="100%" y2="100%"><stop offset="0%" stop-color="#07131f"/><stop offset="100%" stop-color="#11253a"/></linearGradient><linearGradient id="heroGrad" x1="0%" y1="0%" x2="100%" y2="0%"><stop offset="0%" stop-color="#47b475"/><stop offset="100%" stop-color="#79d79d"/></linearGradient><linearGradient id="panelGrad" x1="0%" y1="0%" x2="0%" y2="100%"><stop offset="0%" stop-color="#0d2033"/><stop offset="100%" stop-color="#16314d"/></linearGradient><filter id="softShadow" x="-20%" y="-20%" width="140%" height="160%"><feDropShadow dx="0" dy="12" stdDeviation="16" flood-color="rgba(8,22,38,0.55)"/></filter><filter id="accentGlow" x="-30%" y="-30%" width="160%" height="180%"><feDropShadow dx="0" dy="0" stdDeviation="8" flood-color="#47b475"/></filter><marker id="arrowHead" markerWidth="12" markerHeight="8" refX="10" refY="4" orient="auto"><path d="M0,0 L12,4 L0,8 z" fill="#47b475"/></marker></defs><rect x="0" y="0" width="1760" height="1060" fill="url(#bgGrad)"/><g opacity="0.9"><line x1="0" y1="0" x2="0" y2="1060" stroke="rgba(86,174,255,0.11)" stroke-width="1"/><line x1="64" y1="0" x2="64" y2="1060" stroke="rgba(86,174,255,0.11)" stroke-width="1"/><line x1="128" y1="0" x2="128" y2="1060" stroke="rgba(86,174,255,0.11)" stroke-width="1"/><line x1="192" y1="0" x2="192" y2="1060" stroke="rgba(86,174,255,0.11)" stroke-width="1"/><line x1="256" y1="0" x2="256" y2="1060" stroke="rgba(86,174,255,0.11)" stroke-width="1"/><line x1="320" y1="0" x2="320" y2="1060" stroke="rgba(86,174,255,0.11)" stroke-width="1"/><line x1="384" y1="0" x2="384" y2="1060" stroke="rgba(86,174,255,0.11)" stroke-width="1"/><line x1="448" y1="0" x2="448" y2="1060" stroke="rgba(86,174,255,0.11)" stroke-width="1"/><line x1="512" y1="0" x2="512" y2="1060" stroke="rgba(86,174,255,0.11)" stroke-width="1"/><line x1="576" y1="0" x2="576" y2="1060" stroke="rgba(86,174,255,0.11)" stroke-width="1"/><line x1="640" y1="0" x2="640" y2="1060" stroke="rgba(86,174,255,0.11)" stroke-width="1"/><line x1="704" y1="0" x2="704" y2="1060" stroke="rgba(86,174,255,0.11)" stroke-width="1"/><line x1="768" y1="0" x2="768" y2="1060" stroke="rgba(86,174,255,0.11)" stroke-width="1"/><line x1="832" y1="0" x2="832" y2="1060" stroke="rgba(86,174,255,0.11)" stroke-width="1"/><line x1="896" y1="0" x2="896" y2="1060" stroke="rgba(86,174,255,0.11)" stroke-width="1"/><line x1="960" y1="0" x2="960" y2="1060" stroke="rgba(86,174,255,0.11)" stroke-width="1"/><line x1="1024" y1="0" x2="1024" y2="1060" stroke="rgba(86,174,255,0.11)" stroke-width="1"/><line x1="1088" y1="0" x2="1088" y2="1060" stroke="rgba(86,174,255,0.11)" stroke-width="1"/><line x1="1152" y1="0" x2="1152" y2="1060" stroke="rgba(86,174,255,0.11)" stroke-width="1"/><line x1="1216" y1="0" x2="1216" y2="1060" stroke="rgba(86,174,255,0.11)" stroke-width="1"/><line x1="1280" y1="0" x2="1280" y2="1060" stroke="rgba(86,174,255,0.11)" stroke-width="1"/><line x1="1344" y1="0" x2="1344" y2="1060" stroke="rgba(86,174,255,0.11)" stroke-width="1"/><line x1="1408" y1="0" x2="1408" y2="1060" stroke="rgba(86,174,255,0.11)" stroke-width="1"/><line x1="1472" y1="0" x2="1472" y2="1060" stroke="rgba(86,174,255,0.11)" stroke-width="1"/><line x1="1536" y1="0" x2="1536" y2="1060" stroke="rgba(86,174,255,0.11)" stroke-width="1"/><line x1="1600" y1="0" x2="1600" y2="1060" stroke="rgba(86,174,255,0.11)" stroke-width="1"/><line x1="1664" y1="0" x2="1664" y2="1060" stroke="rgba(86,174,255,0.11)" stroke-width="1"/><line x1="1728" y1="0" x2="1728" y2="1060" stroke="rgba(86,174,255,0.11)" stroke-width="1"/><line x1="0" y1="0" x2="1760" y2="0" stroke="rgba(86,174,255,0.11)" stroke-width="1"/><line x1="0" y1="64" x2="1760" y2="64" stroke="rgba(86,174,255,0.11)" stroke-width="1"/><line x1="0" y1="128" x2="1760" y2="128" stroke="rgba(86,174,255,0.11)" stroke-width="1"/><line x1="0" y1="192" x2="1760" y2="192" stroke="rgba(86,174,255,0.11)" stroke-width="1"/><line x1="0" y1="256" x2="1760" y2="256" stroke="rgba(86,174,255,0.11)" stroke-width="1"/><line x1="0" y1="320" x2="1760" y2="320" stroke="rgba(86,174,255,0.11)" stroke-width="1"/><line x1="0" y1="384" x2="1760" y2="384" stroke="rgba(86,174,255,0.11)" stroke-width="1"/><line x1="0" y1="448" x2="1760" y2="448" stroke="rgba(86,174,255,0.11)" stroke-width="1"/><line x1="0" y1="512" x2="1760" y2="512" stroke="rgba(86,174,255,0.11)" stroke-width="1"/><line x1="0" y1="576" x2="1760" y2="576" stroke="rgba(86,174,255,0.11)" stroke-width="1"/><line x1="0" y1="640" x2="1760" y2="640" stroke="rgba(86,174,255,0.11)" stroke-width="1"/><line x1="0" y1="704" x2="1760" y2="704" stroke="rgba(86,174,255,0.11)" stroke-width="1"/><line x1="0" y1="768" x2="1760" y2="768" stroke="rgba(86,174,255,0.11)" stroke-width="1"/><line x1="0" y1="832" x2="1760" y2="832" stroke="rgba(86,174,255,0.11)" stroke-width="1"/><line x1="0" y1="896" x2="1760" y2="896" stroke="rgba(86,174,255,0.11)" stroke-width="1"/><line x1="0" y1="960" x2="1760" y2="960" stroke="rgba(86,174,255,0.11)" stroke-width="1"/><line x1="0" y1="1024" x2="1760" y2="1024" stroke="rgba(86,174,255,0.11)" stroke-width="1"/></g><rect x="56.0" y="56.0" width="1648.0" height="118" rx="22" fill="#0d2033" fill-opacity="0.18" stroke="#28577d" stroke-width="1.2"/><rect x="74.0" y="72.0" width="240" height="8" rx="4" fill="url(#heroGrad)" filter="url(#accentGlow)"/><text x="80.0" y="120.0" fill="#f8fafc" font-size="31" font-weight="700" text-anchor="start" font-family="IBM Plex Sans, Segoe UI, sans-serif"><tspan x="80.0" dy="0">IR Fusion Vs Unfused</tspan></text><text x="80.0" y="158.0" fill="#9dd5ff" font-size="15" font-weight="500" text-anchor="start" font-family="IBM Plex Sans, Segoe UI, sans-serif"><tspan x="80.0" dy="0">Compare the structural consequence of fused and unfused IR, not just the final runtime name.</tspan></text><g class="technical-node"><rect x="56.0" y="206.0" width="392.5" height="182.0" rx="24" fill="url(#panelGrad)" stroke="#79d79d" stroke-width="1.5" filter="url(#softShadow)"/><rect x="74.0" y="222.0" width="86" height="22" rx="11" fill="#47b475" fill-opacity="0.12" stroke="#47b475" stroke-width="1"/><text x="117.0" y="237.0" fill="#47b475" font-size="10" font-weight="700" text-anchor="middle" font-family="IBM Plex Sans, Segoe UI, sans-serif"><tspan x="117.0" dy="0">STEP 1</tspan></text><text x="76.0" y="268.0" fill="#f8fafc" font-size="19" font-weight="700" text-anchor="start" font-family="IBM Plex Sans, Segoe UI, sans-serif"><tspan x="76.0" dy="0">Source Contract</tspan></text><text x="76.0" y="294.0" fill="#9dd5ff" font-size="12" font-weight="500" text-anchor="start" font-family="IBM Plex Sans, Segoe UI, sans-serif"><tspan x="76.0" dy="0">IR Fusion Vs Unfused begins with a</tspan><tspan x="76.0" dy="15.0">high-level intent or graph</tspan><tspan x="76.0" dy="15.0">contract that must remain visible.</tspan></text><text x="80.0" y="330.0" fill="#79d79d" font-size="11" font-weight="700" text-anchor="start" font-family="IBM Plex Sans, Segoe UI, sans-serif"><tspan x="80.0" dy="0">fused path</tspan></text><text x="80.0" y="348.0" fill="#79d79d" font-size="11" font-weight="700" text-anchor="start" font-family="IBM Plex Sans, Segoe UI, sans-serif"><tspan x="80.0" dy="0">unfused path</tspan></text></g><g class="technical-node"><rect x="474.5" y="206.0" width="392.5" height="182.0" rx="24" fill="url(#panelGrad)" stroke="#79d79d" stroke-width="1.5" filter="url(#softShadow)"/><rect x="492.5" y="222.0" width="86" height="22" rx="11" fill="#47b475" fill-opacity="0.12" stroke="#47b475" stroke-width="1"/><text x="535.5" y="237.0" fill="#47b475" font-size="10" font-weight="700" text-anchor="middle" font-family="IBM Plex Sans, Segoe UI, sans-serif"><tspan x="535.5" dy="0">STEP 2</tspan></text><text x="494.5" y="268.0" fill="#f8fafc" font-size="19" font-weight="700" text-anchor="start" font-family="IBM Plex Sans, Segoe UI, sans-serif"><tspan x="494.5" dy="0">IR Structure</tspan></text><text x="494.5" y="294.0" fill="#9dd5ff" font-size="12" font-weight="500" text-anchor="start" font-family="IBM Plex Sans, Segoe UI, sans-serif"><tspan x="494.5" dy="0">The diagram should surface the</tspan><tspan x="494.5" dy="15.0">intermediate structure that</tspan><tspan x="494.5" dy="15.0">preserves the key semantic</tspan><tspan x="494.5" dy="15.0">boundaries.</tspan></text><text x="498.5" y="330.0" fill="#79d79d" font-size="11" font-weight="700" text-anchor="start" font-family="IBM Plex Sans, Segoe UI, sans-serif"><tspan x="498.5" dy="0">unfused path</tspan></text><text x="498.5" y="348.0" fill="#79d79d" font-size="11" font-weight="700" text-anchor="start" font-family="IBM Plex Sans, Segoe UI, sans-serif"><tspan x="498.5" dy="0">artifact count</tspan></text></g><g class="technical-node"><rect x="893.0" y="206.0" width="392.5" height="182.0" rx="24" fill="url(#panelGrad)" stroke="#79d79d" stroke-width="1.5" filter="url(#softShadow)"/><rect x="911.0" y="222.0" width="86" height="22" rx="11" fill="#47b475" fill-opacity="0.12" stroke="#47b475" stroke-width="1"/><text x="954.0" y="237.0" fill="#47b475" font-size="10" font-weight="700" text-anchor="middle" font-family="IBM Plex Sans, Segoe UI, sans-serif"><tspan x="954.0" dy="0">STEP 3</tspan></text><text x="913.0" y="268.0" fill="#f8fafc" font-size="19" font-weight="700" text-anchor="start" font-family="IBM Plex Sans, Segoe UI, sans-serif"><tspan x="913.0" dy="0">Lowering Choice</tspan></text><text x="913.0" y="294.0" fill="#9dd5ff" font-size="12" font-weight="500" text-anchor="start" font-family="IBM Plex Sans, Segoe UI, sans-serif"><tspan x="913.0" dy="0">Lowering decisions determine what</tspan><tspan x="913.0" dy="15.0">survives into codegen and what</tspan><tspan x="913.0" dy="15.0">collapses into opaque runtime</tspan><tspan x="913.0" dy="15.0">steps.</tspan></text><text x="917.0" y="330.0" fill="#79d79d" font-size="11" font-weight="700" text-anchor="start" font-family="IBM Plex Sans, Segoe UI, sans-serif"><tspan x="917.0" dy="0">lowering</tspan></text><text x="917.0" y="348.0" fill="#79d79d" font-size="11" font-weight="700" text-anchor="start" font-family="IBM Plex Sans, Segoe UI, sans-serif"><tspan x="917.0" dy="0">artifact shape</tspan></text></g><g class="technical-node"><rect x="1311.5" y="206.0" width="392.5" height="182.0" rx="24" fill="url(#panelGrad)" stroke="#79d79d" stroke-width="1.5" filter="url(#softShadow)"/><rect x="1329.5" y="222.0" width="86" height="22" rx="11" fill="#47b475" fill-opacity="0.12" stroke="#47b475" stroke-width="1"/><text x="1372.5" y="237.0" fill="#47b475" font-size="10" font-weight="700" text-anchor="middle" font-family="IBM Plex Sans, Segoe UI, sans-serif"><tspan x="1372.5" dy="0">STEP 4</tspan></text><text x="1331.5" y="268.0" fill="#f8fafc" font-size="19" font-weight="700" text-anchor="start" font-family="IBM Plex Sans, Segoe UI, sans-serif"><tspan x="1331.5" dy="0">Artifact Output</tspan></text><text x="1331.5" y="294.0" fill="#9dd5ff" font-size="12" font-weight="500" text-anchor="start" font-family="IBM Plex Sans, Segoe UI, sans-serif"><tspan x="1331.5" dy="0">The endpoint is a set of</tspan><tspan x="1331.5" dy="15.0">runtime-facing artifacts whose</tspan><tspan x="1331.5" dy="15.0">lineage should still be readable.</tspan></text><text x="1335.5" y="330.0" fill="#79d79d" font-size="11" font-weight="700" text-anchor="start" font-family="IBM Plex Sans, Segoe UI, sans-serif"><tspan x="1335.5" dy="0">fused path</tspan></text><text x="1335.5" y="348.0" fill="#79d79d" font-size="11" font-weight="700" text-anchor="start" font-family="IBM Plex Sans, Segoe UI, sans-serif"><tspan x="1335.5" dy="0">runtime handoff</tspan></text></g><g class="technical-connectors"><path d="M 430.5 297.0 C 461.5 297.0, 461.5 297.0, 492.5 297.0" stroke="#47b475" stroke-width="3" fill="none" marker-end="url(#arrowHead)"/><path d="M 849.0 297.0 C 880.0 297.0, 880.0 297.0, 911.0 297.0" stroke="#47b475" stroke-width="3" fill="none" marker-end="url(#arrowHead)"/><path d="M 1267.5 297.0 C 1298.5 297.0, 1298.5 297.0, 1329.5 297.0" stroke="#47b475" stroke-width="3" fill="none" marker-end="url(#arrowHead)"/></g><g class="formula-strip"><rect x="56.0" y="416.0" width="1648.0" height="132.0" rx="24" fill="url(#panelGrad)" stroke="#79d79d" stroke-width="1.5" filter="url(#softShadow)"/><text x="78.0" y="450.0" fill="#f8fafc" font-size="17" font-weight="700" text-anchor="start" font-family="IBM Plex Sans, Segoe UI, sans-serif"><tspan x="78.0" dy="0">Technical Rule</tspan></text><text x="78.0" y="484.0" fill="#47b475" font-size="14" font-weight="700" text-anchor="start" font-family="IBM Plex Mono, SFMono-Regular, monospace"><tspan x="78.0" dy="0">fused(ir) &lt; branches(unfused)</tspan></text><text x="78.0" y="518.0" fill="#9dd5ff" font-size="11" font-weight="500" text-anchor="start" font-family="IBM Plex Sans, Segoe UI, sans-serif"><tspan x="78.0" dy="0">fused path</tspan></text><text x="368.0" y="518.0" fill="#9dd5ff" font-size="11" font-weight="500" text-anchor="start" font-family="IBM Plex Sans, Segoe UI, sans-serif"><tspan x="368.0" dy="0">unfused path</tspan></text><text x="658.0" y="518.0" fill="#9dd5ff" font-size="11" font-weight="500" text-anchor="start" font-family="IBM Plex Sans, Segoe UI, sans-serif"><tspan x="658.0" dy="0">artifact count</tspan></text></g><g class="artifact-panel"><rect x="56.0" y="574.0" width="811.0" height="196.0" rx="24" fill="url(#panelGrad)" stroke="#79d79d" stroke-width="1.5" filter="url(#softShadow)"/><text x="76.0" y="608.0" fill="#f8fafc" font-size="18" font-weight="700" text-anchor="start" font-family="IBM Plex Sans, Segoe UI, sans-serif"><tspan x="76.0" dy="0">IR Artifact</tspan></text><text x="76.0" y="634.0" fill="#9dd5ff" font-size="12" font-weight="500" text-anchor="start" font-family="IBM Plex Sans, Segoe UI, sans-serif"><tspan x="76.0" dy="0">Expose one concrete artifact or schema</tspan><tspan x="76.0" dy="15.0">view produced by the IR path.</tspan></text><text x="80.0" y="678.0" fill="#79d79d" font-size="11" font-weight="700" text-anchor="start" font-family="IBM Plex Sans, Segoe UI, sans-serif"><tspan x="80.0" dy="0">json</tspan></text><text x="80.0" y="696.0" fill="#79d79d" font-size="11" font-weight="700" text-anchor="start" font-family="IBM Plex Sans, Segoe UI, sans-serif"><tspan x="80.0" dy="0">lineage</tspan></text></g><g class="artifact-panel"><rect x="893.0" y="574.0" width="811.0" height="196.0" rx="24" fill="url(#panelGrad)" stroke="#79d79d" stroke-width="1.5" filter="url(#softShadow)"/><text x="913.0" y="608.0" fill="#f8fafc" font-size="18" font-weight="700" text-anchor="start" font-family="IBM Plex Sans, Segoe UI, sans-serif"><tspan x="913.0" dy="0">Runtime Artifact</tspan></text><text x="913.0" y="634.0" fill="#9dd5ff" font-size="12" font-weight="500" text-anchor="start" font-family="IBM Plex Sans, Segoe UI, sans-serif"><tspan x="913.0" dy="0">Connect the IR choice to emitted runtime</tspan><tspan x="913.0" dy="15.0">files, kernels, or reports.</tspan></text><text x="917.0" y="678.0" fill="#79d79d" font-size="11" font-weight="700" text-anchor="start" font-family="IBM Plex Sans, Segoe UI, sans-serif"><tspan x="917.0" dy="0">runtime files</tspan></text><text x="917.0" y="696.0" fill="#79d79d" font-size="11" font-weight="700" text-anchor="start" font-family="IBM Plex Sans, Segoe UI, sans-serif"><tspan x="917.0" dy="0">debug trace</tspan></text></g><g class="footer-note"><rect x="56.0" y="974.0" width="1648.0" height="48" rx="16" fill="#16314d" fill-opacity="0.94" stroke="#28577d" stroke-width="1"/><text x="76.0" y="1003.0" fill="#9dd5ff" font-size="12" font-weight="500" text-anchor="start" font-family="IBM Plex Sans, Segoe UI, sans-serif"><tspan x="76.0" dy="0">IR Fusion Vs Unfused belongs in the broader contract because the model needs dense technical layouts, not only charts and posters.</tspan></text></g></svg>