<svg xmlns="http://www.w3.org/2000/svg" viewBox="0 0 1200 1800">
  <defs>
    <linearGradient id="headerGrad" x1="0%" y1="0%" x2="100%" y2="0%">
      <stop offset="0%" style="stop-color:#1a1a2e"/>
      <stop offset="100%" style="stop-color:#16213e"/>
    </linearGradient>
    <linearGradient id="memGrad" x1="0%" y1="0%" x2="0%" y2="100%">
      <stop offset="0%" style="stop-color:#e8f4f8"/>
      <stop offset="100%" style="stop-color:#d0e8f0"/>
    </linearGradient>
    <linearGradient id="weightGrad" x1="0%" y1="0%" x2="0%" y2="100%">
      <stop offset="0%" style="stop-color:#667eea"/>
      <stop offset="100%" style="stop-color:#764ba2"/>
    </linearGradient>
    <linearGradient id="scaleGrad" x1="0%" y1="0%" x2="0%" y2="100%">
      <stop offset="0%" style="stop-color:#f093fb"/>
      <stop offset="100%" style="stop-color:#f5576c"/>
    </linearGradient>
    <linearGradient id="activationGrad" x1="0%" y1="0%" x2="0%" y2="100%">
      <stop offset="0%" style="stop-color:#4facfe"/>
      <stop offset="100%" style="stop-color:#00f2fe"/>
    </linearGradient>
    <linearGradient id="outputGrad" x1="0%" y1="0%" x2="0%" y2="100%">
      <stop offset="0%" style="stop-color:#43e97b"/>
      <stop offset="100%" style="stop-color:#38f9d7"/>
    </linearGradient>
    <filter id="shadow" x="-20%" y="-20%" width="140%" height="140%">
      <feDropShadow dx="2" dy="2" stdDeviation="3" flood-opacity="0.2"/>
    </filter>
    <marker id="arrowhead" markerWidth="10" markerHeight="7" refX="9" refY="3.5" orient="auto">
      <polygon points="0 0, 10 3.5, 0 7" fill="#333"/>
    </marker>
    <marker id="arrowheadRed" markerWidth="10" markerHeight="7" refX="9" refY="3.5" orient="auto">
      <polygon points="0 0, 10 3.5, 0 7" fill="#e74c3c"/>
    </marker>
    <marker id="arrowheadGreen" markerWidth="10" markerHeight="7" refX="9" refY="3.5" orient="auto">
      <polygon points="0 0, 10 3.5, 0 7" fill="#27ae60"/>
    </marker>
  </defs>

  <!-- Background -->
  <rect width="1200" height="1800" fill="#fafafa"/>

  <!-- Header -->
  <rect x="0" y="0" width="1200" height="80" fill="url(#headerGrad)"/>
  <text x="600" y="50" text-anchor="middle" font-family="Arial, sans-serif" font-size="28" font-weight="bold" fill="white">Weight Memory Layout &amp; Offset Calculation</text>
  <text x="600" y="70" text-anchor="middle" font-family="Arial, sans-serif" font-size="12" fill="#aaa">C-Kernel-Engine v6.5 Documentation</text>

  <!-- Section 1: GEMM Layout Comparison -->
  <rect x="30" y="100" width="1140" height="380" rx="10" fill="white" filter="url(#shadow)"/>
  <text x="50" y="130" font-family="Arial, sans-serif" font-size="20" font-weight="bold" fill="#1a1a2e">1. GEMM Layout: Normal (NN) vs Transposed (NT)</text>

  <!-- NN Layout -->
  <text x="180" y="165" text-anchor="middle" font-family="Arial, sans-serif" font-size="16" font-weight="bold" fill="#e74c3c">gemm_nn: W[K][N]</text>
  <text x="180" y="185" text-anchor="middle" font-family="Arial, sans-serif" font-size="11" fill="#666">Input dimension (K) is row index</text>

  <!-- NN Matrix visualization -->
  <g transform="translate(60, 200)">
    <!-- Matrix border -->
    <rect x="0" y="0" width="240" height="160" fill="none" stroke="#ccc" stroke-width="2" rx="4"/>

    <!-- Row labels (K dimension) -->
    <text x="-10" y="25" text-anchor="end" font-family="monospace" font-size="10" fill="#666">k=0</text>
    <text x="-10" y="55" text-anchor="end" font-family="monospace" font-size="10" fill="#666">k=1</text>
    <text x="-10" y="85" text-anchor="end" font-family="monospace" font-size="10" fill="#666">k=2</text>
    <text x="-10" y="145" text-anchor="end" font-family="monospace" font-size="10" fill="#666">k=K-1</text>

    <!-- Column labels (N dimension) -->
    <text x="30" y="-5" text-anchor="middle" font-family="monospace" font-size="10" fill="#666">n=0</text>
    <text x="90" y="-5" text-anchor="middle" font-family="monospace" font-size="10" fill="#666">n=1</text>
    <text x="150" y="-5" text-anchor="middle" font-family="monospace" font-size="10" fill="#666">n=2</text>
    <text x="210" y="-5" text-anchor="middle" font-family="monospace" font-size="10" fill="#666">n=N-1</text>

    <!-- Cells - Row 0 (highlighted to show memory order) -->
    <rect x="5" y="10" width="50" height="25" fill="#ffcccc" stroke="#e74c3c" rx="3"/>
    <rect x="65" y="10" width="50" height="25" fill="#ffdddd" stroke="#e74c3c" rx="3"/>
    <rect x="125" y="10" width="50" height="25" fill="#ffeeee" stroke="#e74c3c" rx="3"/>
    <rect x="185" y="10" width="50" height="25" fill="#fff5f5" stroke="#e74c3c" rx="3"/>

    <!-- Row 1 -->
    <rect x="5" y="40" width="50" height="25" fill="#f5f5f5" stroke="#999" rx="3"/>
    <rect x="65" y="40" width="50" height="25" fill="#f5f5f5" stroke="#999" rx="3"/>
    <rect x="125" y="40" width="50" height="25" fill="#f5f5f5" stroke="#999" rx="3"/>
    <rect x="185" y="40" width="50" height="25" fill="#f5f5f5" stroke="#999" rx="3"/>

    <!-- Row 2 -->
    <rect x="5" y="70" width="50" height="25" fill="#f5f5f5" stroke="#999" rx="3"/>
    <rect x="65" y="70" width="50" height="25" fill="#f5f5f5" stroke="#999" rx="3"/>
    <rect x="125" y="70" width="50" height="25" fill="#f5f5f5" stroke="#999" rx="3"/>
    <rect x="185" y="70" width="50" height="25" fill="#f5f5f5" stroke="#999" rx="3"/>

    <!-- Dots -->
    <text x="120" y="115" text-anchor="middle" font-family="Arial" font-size="20" fill="#999">. . .</text>

    <!-- Last row -->
    <rect x="5" y="130" width="50" height="25" fill="#f5f5f5" stroke="#999" rx="3"/>
    <rect x="65" y="130" width="50" height="25" fill="#f5f5f5" stroke="#999" rx="3"/>
    <rect x="125" y="130" width="50" height="25" fill="#f5f5f5" stroke="#999" rx="3"/>
    <rect x="185" y="130" width="50" height="25" fill="#f5f5f5" stroke="#999" rx="3"/>

    <!-- Memory order arrow -->
    <path d="M 30 22 L 90 22 L 150 22 L 210 22" stroke="#e74c3c" stroke-width="2" fill="none" marker-end="url(#arrowheadRed)" stroke-dasharray="5,3"/>
    <text x="120" y="50" text-anchor="middle" font-family="Arial" font-size="9" fill="#e74c3c">memory order within row</text>
  </g>

  <!-- NN Problem callout -->
  <g transform="translate(60, 375)">
    <rect x="0" y="0" width="240" height="60" fill="#fff0f0" stroke="#e74c3c" rx="5"/>
    <text x="120" y="20" text-anchor="middle" font-family="Arial, sans-serif" font-size="11" font-weight="bold" fill="#c0392b">Problem: Cache Misses</text>
    <text x="120" y="35" text-anchor="middle" font-family="Arial, sans-serif" font-size="10" fill="#666">To compute output n=0, must read</text>
    <text x="120" y="48" text-anchor="middle" font-family="Arial, sans-serif" font-size="10" fill="#666">W[0][0], W[1][0], W[2][0]... (stride = N)</text>
  </g>

  <!-- NT Layout -->
  <text x="540" y="165" text-anchor="middle" font-family="Arial, sans-serif" font-size="16" font-weight="bold" fill="#27ae60">gemm_nt: W[N][K]</text>
  <text x="540" y="185" text-anchor="middle" font-family="Arial, sans-serif" font-size="11" fill="#666">Output dimension (N) is row index</text>

  <!-- NT Matrix visualization -->
  <g transform="translate(420, 200)">
    <!-- Matrix border -->
    <rect x="0" y="0" width="240" height="160" fill="none" stroke="#ccc" stroke-width="2" rx="4"/>

    <!-- Row labels (N dimension - outputs) -->
    <text x="-10" y="25" text-anchor="end" font-family="monospace" font-size="10" fill="#666">n=0</text>
    <text x="-10" y="55" text-anchor="end" font-family="monospace" font-size="10" fill="#666">n=1</text>
    <text x="-10" y="85" text-anchor="end" font-family="monospace" font-size="10" fill="#666">n=2</text>
    <text x="-10" y="145" text-anchor="end" font-family="monospace" font-size="10" fill="#666">n=N-1</text>

    <!-- Column labels (K dimension - inputs) -->
    <text x="30" y="-5" text-anchor="middle" font-family="monospace" font-size="10" fill="#666">k=0</text>
    <text x="90" y="-5" text-anchor="middle" font-family="monospace" font-size="10" fill="#666">k=1</text>
    <text x="150" y="-5" text-anchor="middle" font-family="monospace" font-size="10" fill="#666">k=2</text>
    <text x="210" y="-5" text-anchor="middle" font-family="monospace" font-size="10" fill="#666">k=K-1</text>

    <!-- Cells - Row 0 (output neuron 0's weights - all contiguous!) -->
    <rect x="5" y="10" width="50" height="25" fill="#ccffcc" stroke="#27ae60" rx="3"/>
    <rect x="65" y="10" width="50" height="25" fill="#ccffcc" stroke="#27ae60" rx="3"/>
    <rect x="125" y="10" width="50" height="25" fill="#ccffcc" stroke="#27ae60" rx="3"/>
    <rect x="185" y="10" width="50" height="25" fill="#ccffcc" stroke="#27ae60" rx="3"/>

    <!-- Row 1 -->
    <rect x="5" y="40" width="50" height="25" fill="#f5f5f5" stroke="#999" rx="3"/>
    <rect x="65" y="40" width="50" height="25" fill="#f5f5f5" stroke="#999" rx="3"/>
    <rect x="125" y="40" width="50" height="25" fill="#f5f5f5" stroke="#999" rx="3"/>
    <rect x="185" y="40" width="50" height="25" fill="#f5f5f5" stroke="#999" rx="3"/>

    <!-- Row 2 -->
    <rect x="5" y="70" width="50" height="25" fill="#f5f5f5" stroke="#999" rx="3"/>
    <rect x="65" y="70" width="50" height="25" fill="#f5f5f5" stroke="#999" rx="3"/>
    <rect x="125" y="70" width="50" height="25" fill="#f5f5f5" stroke="#999" rx="3"/>
    <rect x="185" y="70" width="50" height="25" fill="#f5f5f5" stroke="#999" rx="3"/>

    <!-- Dots -->
    <text x="120" y="115" text-anchor="middle" font-family="Arial" font-size="20" fill="#999">. . .</text>

    <!-- Last row -->
    <rect x="5" y="130" width="50" height="25" fill="#f5f5f5" stroke="#999" rx="3"/>
    <rect x="65" y="130" width="50" height="25" fill="#f5f5f5" stroke="#999" rx="3"/>
    <rect x="125" y="130" width="50" height="25" fill="#f5f5f5" stroke="#999" rx="3"/>
    <rect x="185" y="130" width="50" height="25" fill="#f5f5f5" stroke="#999" rx="3"/>

    <!-- Memory order arrow -->
    <path d="M 30 22 L 90 22 L 150 22 L 210 22" stroke="#27ae60" stroke-width="2" fill="none" marker-end="url(#arrowheadGreen)" stroke-dasharray="5,3"/>
    <text x="120" y="50" text-anchor="middle" font-family="Arial" font-size="9" fill="#27ae60">output n=0 weights contiguous!</text>
  </g>

  <!-- NT Benefit callout -->
  <g transform="translate(420, 375)">
    <rect x="0" y="0" width="240" height="60" fill="#f0fff0" stroke="#27ae60" rx="5"/>
    <text x="120" y="20" text-anchor="middle" font-family="Arial, sans-serif" font-size="11" font-weight="bold" fill="#1e8449">Benefit: Sequential Access</text>
    <text x="120" y="35" text-anchor="middle" font-family="Arial, sans-serif" font-size="10" fill="#666">To compute output n=0, read</text>
    <text x="120" y="48" text-anchor="middle" font-family="Arial, sans-serif" font-size="10" fill="#666">W[0][0], W[0][1], W[0][2]... (stride = 1)</text>
  </g>

  <!-- Linear memory representation -->
  <g transform="translate(700, 195)">
    <text x="220" y="0" text-anchor="middle" font-family="Arial, sans-serif" font-size="14" font-weight="bold" fill="#333">Linear Memory View (gemm_nt)</text>

    <!-- Memory strip -->
    <rect x="0" y="15" width="440" height="40" fill="url(#memGrad)" stroke="#999" rx="4"/>

    <!-- Output 0 weights -->
    <rect x="5" y="20" width="100" height="30" fill="#ccffcc" stroke="#27ae60" rx="3"/>
    <text x="55" y="40" text-anchor="middle" font-family="monospace" font-size="10" fill="#1e8449">Output 0 weights</text>

    <!-- Output 1 weights -->
    <rect x="110" y="20" width="100" height="30" fill="#cceeff" stroke="#3498db" rx="3"/>
    <text x="160" y="40" text-anchor="middle" font-family="monospace" font-size="10" fill="#2980b9">Output 1 weights</text>

    <!-- Output 2 weights -->
    <rect x="215" y="20" width="100" height="30" fill="#ffe6cc" stroke="#e67e22" rx="3"/>
    <text x="265" y="40" text-anchor="middle" font-family="monospace" font-size="10" fill="#d35400">Output 2 weights</text>

    <!-- Dots -->
    <text x="340" y="42" font-family="Arial" font-size="16" fill="#999">...</text>

    <!-- Output N-1 -->
    <rect x="370" y="20" width="65" height="30" fill="#e6ccff" stroke="#9b59b6" rx="3"/>
    <text x="402" y="40" text-anchor="middle" font-family="monospace" font-size="9" fill="#8e44ad">Out N-1</text>

    <!-- Offset labels -->
    <text x="5" y="70" font-family="monospace" font-size="9" fill="#666">offset: 0</text>
    <text x="110" y="70" font-family="monospace" font-size="9" fill="#666">K bytes</text>
    <text x="215" y="70" font-family="monospace" font-size="9" fill="#666">2K bytes</text>
    <text x="370" y="70" font-family="monospace" font-size="9" fill="#666">(N-1)*K</text>

    <!-- Row stride formula -->
    <rect x="0" y="85" width="440" height="45" fill="#f8f9fa" stroke="#dee2e6" rx="4"/>
    <text x="220" y="105" text-anchor="middle" font-family="monospace" font-size="12" fill="#333">row_offset = n * K * sizeof(element)</text>
    <text x="220" y="122" text-anchor="middle" font-family="Arial" font-size="10" fill="#666">For FP32: row_offset = n * K * 4 bytes</text>
  </g>

  <!-- Section 2: Quantized Block Structure -->
  <rect x="30" y="500" width="1140" height="340" rx="10" fill="white" filter="url(#shadow)"/>
  <text x="50" y="530" font-family="Arial, sans-serif" font-size="20" font-weight="bold" fill="#1a1a2e">2. Quantized Block Structure (Q8_0 Example)</text>

  <!-- Q8_0 Block diagram -->
  <g transform="translate(60, 555)">
    <text x="0" y="0" font-family="Arial, sans-serif" font-size="14" font-weight="bold" fill="#333">One Q8_0 Block = 34 bytes (32 weights)</text>

    <!-- Block container -->
    <rect x="0" y="15" width="520" height="70" fill="url(#memGrad)" stroke="#999" rx="4"/>

    <!-- Scale (FP16) -->
    <rect x="10" y="25" width="60" height="50" fill="url(#scaleGrad)" stroke="#c0392b" rx="4"/>
    <text x="40" y="48" text-anchor="middle" font-family="Arial, sans-serif" font-size="11" font-weight="bold" fill="white">scale</text>
    <text x="40" y="63" text-anchor="middle" font-family="Arial, sans-serif" font-size="9" fill="white">FP16</text>
    <text x="40" y="90" text-anchor="middle" font-family="monospace" font-size="9" fill="#666">2 bytes</text>

    <!-- Weights -->
    <rect x="80" y="25" width="430" height="50" fill="url(#weightGrad)" stroke="#5b4b8a" rx="4"/>
    <text x="295" y="48" text-anchor="middle" font-family="Arial, sans-serif" font-size="11" font-weight="bold" fill="white">qs[32] - Quantized weights</text>
    <text x="295" y="63" text-anchor="middle" font-family="Arial, sans-serif" font-size="9" fill="white">32 x INT8 values</text>
    <text x="295" y="90" text-anchor="middle" font-family="monospace" font-size="9" fill="#666">32 bytes</text>

    <!-- Individual weight cells -->
    <g transform="translate(85, 30)">
      <rect x="0" y="0" width="12" height="20" fill="#8b7bb8" stroke="#5b4b8a" rx="2"/>
      <rect x="14" y="0" width="12" height="20" fill="#8b7bb8" stroke="#5b4b8a" rx="2"/>
      <rect x="28" y="0" width="12" height="20" fill="#8b7bb8" stroke="#5b4b8a" rx="2"/>
      <rect x="42" y="0" width="12" height="20" fill="#8b7bb8" stroke="#5b4b8a" rx="2"/>
      <text x="70" y="14" font-family="Arial" font-size="12" fill="white">...</text>
      <rect x="90" y="0" width="12" height="20" fill="#8b7bb8" stroke="#5b4b8a" rx="2"/>
      <rect x="104" y="0" width="12" height="20" fill="#8b7bb8" stroke="#5b4b8a" rx="2"/>
    </g>

    <!-- Total -->
    <text x="540" y="55" font-family="monospace" font-size="12" font-weight="bold" fill="#333">= 34 bytes</text>
  </g>

  <!-- Row of blocks -->
  <g transform="translate(60, 680)">
    <text x="0" y="0" font-family="Arial, sans-serif" font-size="14" font-weight="bold" fill="#333">One Weight Row (K=896 elements) = 28 blocks</text>

    <!-- Row container -->
    <rect x="0" y="15" width="700" height="60" fill="url(#memGrad)" stroke="#999" rx="4"/>

    <!-- Block 0 -->
    <rect x="10" y="25" width="80" height="40" fill="url(#weightGrad)" stroke="#5b4b8a" rx="4"/>
    <text x="50" y="42" text-anchor="middle" font-family="monospace" font-size="9" fill="white">Block 0</text>
    <text x="50" y="55" text-anchor="middle" font-family="monospace" font-size="8" fill="#ddd">qs[0..31]</text>

    <!-- Block 1 -->
    <rect x="100" y="25" width="80" height="40" fill="url(#weightGrad)" stroke="#5b4b8a" rx="4"/>
    <text x="140" y="42" text-anchor="middle" font-family="monospace" font-size="9" fill="white">Block 1</text>
    <text x="140" y="55" text-anchor="middle" font-family="monospace" font-size="8" fill="#ddd">qs[32..63]</text>

    <!-- Block 2 -->
    <rect x="190" y="25" width="80" height="40" fill="url(#weightGrad)" stroke="#5b4b8a" rx="4"/>
    <text x="230" y="42" text-anchor="middle" font-family="monospace" font-size="9" fill="white">Block 2</text>
    <text x="230" y="55" text-anchor="middle" font-family="monospace" font-size="8" fill="#ddd">qs[64..95]</text>

    <!-- Dots -->
    <text x="310" y="50" font-family="Arial" font-size="20" fill="#999">...</text>

    <!-- Block 27 -->
    <rect x="370" y="25" width="80" height="40" fill="url(#weightGrad)" stroke="#5b4b8a" rx="4"/>
    <text x="410" y="42" text-anchor="middle" font-family="monospace" font-size="9" fill="white">Block 27</text>
    <text x="410" y="55" text-anchor="middle" font-family="monospace" font-size="8" fill="#ddd">qs[864..895]</text>

    <!-- Calculation -->
    <text x="470" y="50" font-family="monospace" font-size="11" fill="#333">= 896/32 = 28 blocks</text>
    <text x="470" y="65" font-family="monospace" font-size="11" fill="#333">= 28 × 34 = 952 bytes</text>
  </g>

  <!-- Formula box -->
  <g transform="translate(780, 555)">
    <rect x="0" y="0" width="370" height="170" fill="#f0f4f8" stroke="#3498db" rx="6"/>
    <text x="185" y="25" text-anchor="middle" font-family="Arial, sans-serif" font-size="14" font-weight="bold" fill="#2c3e50">Offset Formulas (Q8_0)</text>

    <text x="20" y="55" font-family="monospace" font-size="11" fill="#333">block_size    = 32  (elements/block)</text>
    <text x="20" y="75" font-family="monospace" font-size="11" fill="#333">bytes_per_block = 34  (2 + 32)</text>
    <text x="20" y="95" font-family="monospace" font-size="11" fill="#333">blocks_per_row = K / block_size</text>
    <text x="20" y="115" font-family="monospace" font-size="11" fill="#333">row_bytes     = blocks_per_row × 34</text>

    <line x1="20" y1="125" x2="350" y2="125" stroke="#3498db" stroke-width="1"/>

    <text x="20" y="145" font-family="monospace" font-size="11" font-weight="bold" fill="#e74c3c">row_offset = n × (K/32) × 34</text>
    <text x="20" y="162" font-family="monospace" font-size="10" fill="#666">Example: row 5 = 5 × (896/32) × 34 = 4760 bytes</text>
  </g>

  <!-- Section 3: Complete Weight Matrix Layout -->
  <rect x="30" y="860" width="1140" height="380" rx="10" fill="white" filter="url(#shadow)"/>
  <text x="50" y="890" font-family="Arial, sans-serif" font-size="20" font-weight="bold" fill="#1a1a2e">3. Complete Weight Matrix Memory Layout</text>
  <text x="50" y="910" font-family="Arial, sans-serif" font-size="12" fill="#666">Example: Linear layer 896 → 4864 (w1 in MLP, Q5_0 quantized)</text>

  <!-- Memory diagram -->
  <g transform="translate(60, 930)">
    <!-- Memory bar -->
    <rect x="0" y="0" width="1080" height="250" fill="url(#memGrad)" stroke="#999" rx="6"/>

    <!-- Row 0 -->
    <rect x="10" y="15" width="1060" height="35" fill="url(#weightGrad)" stroke="#5b4b8a" rx="4"/>
    <text x="20" y="38" font-family="monospace" font-size="11" fill="white">Output Neuron 0: [block₀][block₁][block₂]...[block₂₇] = 28 blocks × 22 bytes = 616 bytes</text>
    <text x="1040" y="38" text-anchor="end" font-family="monospace" font-size="10" fill="#ddd">offset: 0</text>

    <!-- Row 1 -->
    <rect x="10" y="55" width="1060" height="35" fill="#7b6bba" stroke="#5b4b8a" rx="4"/>
    <text x="20" y="78" font-family="monospace" font-size="11" fill="white">Output Neuron 1: [block₀][block₁][block₂]...[block₂₇] = 28 blocks × 22 bytes = 616 bytes</text>
    <text x="1040" y="78" text-anchor="end" font-family="monospace" font-size="10" fill="#ddd">offset: 616</text>

    <!-- Row 2 -->
    <rect x="10" y="95" width="1060" height="35" fill="#8b7bc8" stroke="#5b4b8a" rx="4"/>
    <text x="20" y="118" font-family="monospace" font-size="11" fill="white">Output Neuron 2: [block₀][block₁][block₂]...[block₂₇] = 28 blocks × 22 bytes = 616 bytes</text>
    <text x="1040" y="118" text-anchor="end" font-family="monospace" font-size="10" fill="#ddd">offset: 1232</text>

    <!-- Dots -->
    <text x="540" y="150" text-anchor="middle" font-family="Arial" font-size="24" fill="#666">. . .</text>

    <!-- Row N-1 -->
    <rect x="10" y="165" width="1060" height="35" fill="#9b8bd8" stroke="#5b4b8a" rx="4"/>
    <text x="20" y="188" font-family="monospace" font-size="11" fill="white">Output Neuron 4863: [block₀][block₁][block₂]...[block₂₇] = 28 blocks × 22 bytes = 616 bytes</text>
    <text x="1040" y="188" text-anchor="end" font-family="monospace" font-size="10" fill="#ddd">offset: 2,995,408</text>

    <!-- Total size -->
    <rect x="10" y="210" width="1060" height="30" fill="#2c3e50" rx="4"/>
    <text x="540" y="230" text-anchor="middle" font-family="monospace" font-size="12" fill="white">Total: 4864 rows × 616 bytes/row = 2,996,224 bytes (2.86 MB)</text>
  </g>

  <!-- Section 4: Offset Calculation Code -->
  <rect x="30" y="1260" width="550" height="280" rx="10" fill="white" filter="url(#shadow)"/>
  <text x="50" y="1290" font-family="Arial, sans-serif" font-size="20" font-weight="bold" fill="#1a1a2e">4. Offset Calculation in Code</text>

  <!-- Code block -->
  <g transform="translate(50, 1310)">
    <rect x="0" y="0" width="510" height="210" fill="#1e1e1e" rx="6"/>
    <text x="15" y="25" font-family="monospace" font-size="11" fill="#569cd6">// Calculate row offset for output neuron n</text>
    <text x="15" y="45" font-family="monospace" font-size="11" fill="#dcdcaa">size_t</text>
    <text x="60" y="45" font-family="monospace" font-size="11" fill="#9cdcfe"> get_weight_row_offset</text>
    <text x="200" y="45" font-family="monospace" font-size="11" fill="#d4d4d4">(</text>
    <text x="15" y="65" font-family="monospace" font-size="11" fill="#d4d4d4">    int n,          </text>
    <text x="150" y="65" font-family="monospace" font-size="11" fill="#6a9955">// output neuron index</text>
    <text x="15" y="85" font-family="monospace" font-size="11" fill="#d4d4d4">    int K,          </text>
    <text x="150" y="85" font-family="monospace" font-size="11" fill="#6a9955">// input dimension</text>
    <text x="15" y="105" font-family="monospace" font-size="11" fill="#d4d4d4">    int block_size, </text>
    <text x="150" y="105" font-family="monospace" font-size="11" fill="#6a9955">// e.g., 32 for Q8_0</text>
    <text x="15" y="125" font-family="monospace" font-size="11" fill="#d4d4d4">    int bytes_per_block</text>
    <text x="180" y="125" font-family="monospace" font-size="11" fill="#6a9955">// e.g., 34 for Q8_0</text>
    <text x="15" y="145" font-family="monospace" font-size="11" fill="#d4d4d4">) {</text>
    <text x="15" y="165" font-family="monospace" font-size="11" fill="#c586c0">    int</text>
    <text x="50" y="165" font-family="monospace" font-size="11" fill="#9cdcfe"> blocks</text>
    <text x="100" y="165" font-family="monospace" font-size="11" fill="#d4d4d4"> = K / block_size;</text>
    <text x="15" y="185" font-family="monospace" font-size="11" fill="#c586c0">    return</text>
    <text x="70" y="185" font-family="monospace" font-size="11" fill="#9cdcfe"> n</text>
    <text x="80" y="185" font-family="monospace" font-size="11" fill="#d4d4d4"> * blocks * bytes_per_block;</text>
    <text x="15" y="205" font-family="monospace" font-size="11" fill="#d4d4d4">}</text>
  </g>

  <!-- Section 5: Quantization Format Reference -->
  <rect x="600" y="1260" width="570" height="280" rx="10" fill="white" filter="url(#shadow)"/>
  <text x="620" y="1290" font-family="Arial, sans-serif" font-size="20" font-weight="bold" fill="#1a1a2e">5. Quantization Format Reference</text>

  <!-- Table -->
  <g transform="translate(620, 1310)">
    <!-- Header -->
    <rect x="0" y="0" width="530" height="30" fill="#2c3e50" rx="4"/>
    <text x="70" y="20" text-anchor="middle" font-family="Arial, sans-serif" font-size="11" font-weight="bold" fill="white">Format</text>
    <text x="170" y="20" text-anchor="middle" font-family="Arial, sans-serif" font-size="11" font-weight="bold" fill="white">Block Size</text>
    <text x="280" y="20" text-anchor="middle" font-family="Arial, sans-serif" font-size="11" font-weight="bold" fill="white">Bytes/Block</text>
    <text x="420" y="20" text-anchor="middle" font-family="Arial, sans-serif" font-size="11" font-weight="bold" fill="white">Row Bytes (K=896)</text>

    <!-- Q8_0 -->
    <rect x="0" y="35" width="530" height="28" fill="#e8f4f8"/>
    <text x="70" y="53" text-anchor="middle" font-family="monospace" font-size="11" fill="#333">Q8_0</text>
    <text x="170" y="53" text-anchor="middle" font-family="monospace" font-size="11" fill="#333">32</text>
    <text x="280" y="53" text-anchor="middle" font-family="monospace" font-size="11" fill="#333">34</text>
    <text x="420" y="53" text-anchor="middle" font-family="monospace" font-size="11" fill="#333">28 × 34 = 952</text>

    <!-- Q5_0 -->
    <rect x="0" y="63" width="530" height="28" fill="#f8f9fa"/>
    <text x="70" y="81" text-anchor="middle" font-family="monospace" font-size="11" fill="#333">Q5_0</text>
    <text x="170" y="81" text-anchor="middle" font-family="monospace" font-size="11" fill="#333">32</text>
    <text x="280" y="81" text-anchor="middle" font-family="monospace" font-size="11" fill="#333">22</text>
    <text x="420" y="81" text-anchor="middle" font-family="monospace" font-size="11" fill="#333">28 × 22 = 616</text>

    <!-- Q4_0 -->
    <rect x="0" y="91" width="530" height="28" fill="#e8f4f8"/>
    <text x="70" y="109" text-anchor="middle" font-family="monospace" font-size="11" fill="#333">Q4_0</text>
    <text x="170" y="109" text-anchor="middle" font-family="monospace" font-size="11" fill="#333">32</text>
    <text x="280" y="109" text-anchor="middle" font-family="monospace" font-size="11" fill="#333">18</text>
    <text x="420" y="109" text-anchor="middle" font-family="monospace" font-size="11" fill="#333">28 × 18 = 504</text>

    <!-- Q4_K -->
    <rect x="0" y="119" width="530" height="28" fill="#f8f9fa"/>
    <text x="70" y="137" text-anchor="middle" font-family="monospace" font-size="11" fill="#333">Q4_K</text>
    <text x="170" y="137" text-anchor="middle" font-family="monospace" font-size="11" fill="#e74c3c" font-weight="bold">256</text>
    <text x="280" y="137" text-anchor="middle" font-family="monospace" font-size="11" fill="#333">144</text>
    <text x="420" y="137" text-anchor="middle" font-family="monospace" font-size="11" fill="#333">3.5 × 144 = 504*</text>

    <!-- Q6_K -->
    <rect x="0" y="147" width="530" height="28" fill="#e8f4f8"/>
    <text x="70" y="165" text-anchor="middle" font-family="monospace" font-size="11" fill="#333">Q6_K</text>
    <text x="170" y="165" text-anchor="middle" font-family="monospace" font-size="11" fill="#e74c3c" font-weight="bold">256</text>
    <text x="280" y="165" text-anchor="middle" font-family="monospace" font-size="11" fill="#333">210</text>
    <text x="420" y="165" text-anchor="middle" font-family="monospace" font-size="11" fill="#333">3.5 × 210 = 735*</text>

    <!-- FP32 -->
    <rect x="0" y="175" width="530" height="28" fill="#f8f9fa"/>
    <text x="70" y="193" text-anchor="middle" font-family="monospace" font-size="11" fill="#333">FP32</text>
    <text x="170" y="193" text-anchor="middle" font-family="monospace" font-size="11" fill="#333">1</text>
    <text x="280" y="193" text-anchor="middle" font-family="monospace" font-size="11" fill="#333">4</text>
    <text x="420" y="193" text-anchor="middle" font-family="monospace" font-size="11" fill="#333">896 × 4 = 3584</text>

    <!-- Note -->
    <text x="0" y="220" font-family="Arial, sans-serif" font-size="10" fill="#666">* K-quants require K aligned to 256; 896 = 3.5 super-blocks (padded)</text>
  </g>

  <!-- Section 6: Critical Bug Example -->
  <rect x="30" y="1560" width="1140" height="220" rx="10" fill="white" filter="url(#shadow)"/>
  <text x="50" y="1590" font-family="Arial, sans-serif" font-size="20" font-weight="bold" fill="#1a1a2e">6. Critical: Row Stride Mismatch Bug Example</text>

  <!-- Bug diagram -->
  <g transform="translate(60, 1620)">
    <!-- Correct -->
    <text x="0" y="0" font-family="Arial, sans-serif" font-size="13" font-weight="bold" fill="#27ae60">Correct: row_bytes = (K/32) × 34 = (896/32) × 34 = 952</text>

    <rect x="0" y="15" width="650" height="40" fill="#e8f8e8" stroke="#27ae60" rx="4"/>
    <rect x="10" y="22" width="150" height="26" fill="#ccffcc" stroke="#27ae60" rx="3"/>
    <text x="85" y="40" text-anchor="middle" font-family="monospace" font-size="10" fill="#1e8449">Token 0 (952 bytes)</text>
    <rect x="170" y="22" width="150" height="26" fill="#ccffcc" stroke="#27ae60" rx="3"/>
    <text x="245" y="40" text-anchor="middle" font-family="monospace" font-size="10" fill="#1e8449">Token 1 (952 bytes)</text>
    <rect x="330" y="22" width="150" height="26" fill="#ccffcc" stroke="#27ae60" rx="3"/>
    <text x="405" y="40" text-anchor="middle" font-family="monospace" font-size="10" fill="#1e8449">Token 2 (952 bytes)</text>
    <text x="510" y="40" font-family="Arial" font-size="14" fill="#27ae60">...</text>

    <!-- Arrows showing correct offsets -->
    <text x="85" y="72" text-anchor="middle" font-family="monospace" font-size="9" fill="#27ae60">offset: 0</text>
    <text x="245" y="72" text-anchor="middle" font-family="monospace" font-size="9" fill="#27ae60">offset: 952</text>
    <text x="405" y="72" text-anchor="middle" font-family="monospace" font-size="9" fill="#27ae60">offset: 1904</text>
  </g>

  <g transform="translate(60, 1710)">
    <!-- Wrong -->
    <text x="0" y="0" font-family="Arial, sans-serif" font-size="13" font-weight="bold" fill="#e74c3c">Bug: row_bytes = (K/32 + 1) × 34 = (28 + 1) × 34 = 986 (WRONG!)</text>

    <rect x="0" y="15" width="650" height="40" fill="#f8e8e8" stroke="#e74c3c" rx="4"/>
    <rect x="10" y="22" width="160" height="26" fill="#ffcccc" stroke="#e74c3c" rx="3"/>
    <text x="90" y="40" text-anchor="middle" font-family="monospace" font-size="10" fill="#c0392b">Token 0 (986 bytes)</text>
    <rect x="180" y="22" width="160" height="26" fill="#ffcccc" stroke="#e74c3c" rx="3"/>
    <text x="260" y="40" text-anchor="middle" font-family="monospace" font-size="10" fill="#c0392b">Token 1 (986 bytes)</text>
    <rect x="350" y="22" width="160" height="26" fill="#ffcccc" stroke="#e74c3c" rx="3"/>
    <text x="430" y="40" text-anchor="middle" font-family="monospace" font-size="10" fill="#c0392b">Token 2 (986 bytes)</text>

    <!-- Red X showing mismatch -->
    <text x="85" y="72" text-anchor="middle" font-family="monospace" font-size="9" fill="#e74c3c">offset: 0</text>
    <text x="260" y="72" text-anchor="middle" font-family="monospace" font-size="9" fill="#e74c3c">offset: 986 (kernel expects 952!)</text>

    <!-- Result -->
    <rect x="680" y="15" width="240" height="40" fill="#ffdddd" stroke="#e74c3c" rx="4"/>
    <text x="800" y="32" text-anchor="middle" font-family="Arial, sans-serif" font-size="11" font-weight="bold" fill="#c0392b">Result: NaN/Garbage</text>
    <text x="800" y="48" text-anchor="middle" font-family="Arial, sans-serif" font-size="10" fill="#666">Kernel reads wrong memory</text>
  </g>

  <!-- Footer -->
  <rect x="0" y="1780" width="1200" height="20" fill="url(#headerGrad)"/>
  <text x="600" y="1794" text-anchor="middle" font-family="Arial, sans-serif" font-size="10" fill="#aaa">C-Kernel-Engine v6.5 | Weight Memory Layout Documentation</text>
</svg>