<svg width="960" height="1420" viewBox="0 0 960 1420" xmlns="http://www.w3.org/2000/svg"><defs><linearGradient id="bgGrad" x1="0%" y1="0%" x2="100%" y2="100%"><stop offset="0%" stop-color="#0b1018"/><stop offset="100%" stop-color="#141d2b"/></linearGradient><linearGradient id="heroGrad" x1="0%" y1="0%" x2="100%" y2="0%"><stop offset="0%" stop-color="#56aefc"/><stop offset="100%" stop-color="#8bcaff"/></linearGradient><linearGradient id="panelGrad" x1="0%" y1="0%" x2="0%" y2="100%"><stop offset="0%" stop-color="#121b29"/><stop offset="100%" stop-color="#192638"/></linearGradient><filter id="softShadow" x="-20%" y="-20%" width="140%" height="160%"><feDropShadow dx="0" dy="12" stdDeviation="16" flood-color="rgba(2,6,23,0.46)"/></filter><filter id="accentGlow" x="-30%" y="-30%" width="160%" height="180%"><feDropShadow dx="0" dy="0" stdDeviation="8" flood-color="#56aefc"/></filter></defs><rect x="0" y="0" width="960" height="1420" fill="url(#bgGrad)"/><g opacity="0.9"><line x1="0" y1="0" x2="0" y2="1420" stroke="rgba(148,163,184,0.10)" stroke-width="1"/><line x1="64" y1="0" x2="64" y2="1420" stroke="rgba(148,163,184,0.10)" stroke-width="1"/><line x1="128" y1="0" x2="128" y2="1420" stroke="rgba(148,163,184,0.10)" stroke-width="1"/><line x1="192" y1="0" x2="192" y2="1420" stroke="rgba(148,163,184,0.10)" stroke-width="1"/><line x1="256" y1="0" x2="256" y2="1420" stroke="rgba(148,163,184,0.10)" stroke-width="1"/><line x1="320" y1="0" x2="320" y2="1420" stroke="rgba(148,163,184,0.10)" stroke-width="1"/><line x1="384" y1="0" x2="384" y2="1420" stroke="rgba(148,163,184,0.10)" stroke-width="1"/><line x1="448" y1="0" x2="448" y2="1420" stroke="rgba(148,163,184,0.10)" stroke-width="1"/><line x1="512" y1="0" x2="512" y2="1420" stroke="rgba(148,163,184,0.10)" stroke-width="1"/><line x1="576" y1="0" x2="576" y2="1420" stroke="rgba(148,163,184,0.10)" stroke-width="1"/><line x1="640" y1="0" x2="640" y2="1420" stroke="rgba(148,163,184,0.10)" stroke-width="1"/><line x1="704" y1="0" x2="704" y2="1420" stroke="rgba(148,163,184,0.10)" stroke-width="1"/><line x1="768" y1="0" x2="768" y2="1420" stroke="rgba(148,163,184,0.10)" stroke-width="1"/><line x1="832" y1="0" x2="832" y2="1420" stroke="rgba(148,163,184,0.10)" stroke-width="1"/><line x1="896" y1="0" x2="896" y2="1420" stroke="rgba(148,163,184,0.10)" stroke-width="1"/><line x1="960" y1="0" x2="960" y2="1420" stroke="rgba(148,163,184,0.10)" stroke-width="1"/><line x1="0" y1="0" x2="960" y2="0" stroke="rgba(148,163,184,0.10)" stroke-width="1"/><line x1="0" y1="64" x2="960" y2="64" stroke="rgba(148,163,184,0.10)" stroke-width="1"/><line x1="0" y1="128" x2="960" y2="128" stroke="rgba(148,163,184,0.10)" stroke-width="1"/><line x1="0" y1="192" x2="960" y2="192" stroke="rgba(148,163,184,0.10)" stroke-width="1"/><line x1="0" y1="256" x2="960" y2="256" stroke="rgba(148,163,184,0.10)" stroke-width="1"/><line x1="0" y1="320" x2="960" y2="320" stroke="rgba(148,163,184,0.10)" stroke-width="1"/><line x1="0" y1="384" x2="960" y2="384" stroke="rgba(148,163,184,0.10)" stroke-width="1"/><line x1="0" y1="448" x2="960" y2="448" stroke="rgba(148,163,184,0.10)" stroke-width="1"/><line x1="0" y1="512" x2="960" y2="512" stroke="rgba(148,163,184,0.10)" stroke-width="1"/><line x1="0" y1="576" x2="960" y2="576" stroke="rgba(148,163,184,0.10)" stroke-width="1"/><line x1="0" y1="640" x2="960" y2="640" stroke="rgba(148,163,184,0.10)" stroke-width="1"/><line x1="0" y1="704" x2="960" y2="704" stroke="rgba(148,163,184,0.10)" stroke-width="1"/><line x1="0" y1="768" x2="960" y2="768" stroke="rgba(148,163,184,0.10)" stroke-width="1"/><line x1="0" y1="832" x2="960" y2="832" stroke="rgba(148,163,184,0.10)" stroke-width="1"/><line x1="0" y1="896" x2="960" y2="896" stroke="rgba(148,163,184,0.10)" stroke-width="1"/><line x1="0" y1="960" x2="960" y2="960" stroke="rgba(148,163,184,0.10)" stroke-width="1"/><line x1="0" y1="1024" x2="960" y2="1024" stroke="rgba(148,163,184,0.10)" stroke-width="1"/><line x1="0" y1="1088" x2="960" y2="1088" stroke="rgba(148,163,184,0.10)" stroke-width="1"/><line x1="0" y1="1152" x2="960" y2="1152" stroke="rgba(148,163,184,0.10)" stroke-width="1"/><line x1="0" y1="1216" x2="960" y2="1216" stroke="rgba(148,163,184,0.10)" stroke-width="1"/><line x1="0" y1="1280" x2="960" y2="1280" stroke="rgba(148,163,184,0.10)" stroke-width="1"/><line x1="0" y1="1344" x2="960" y2="1344" stroke="rgba(148,163,184,0.10)" stroke-width="1"/><line x1="0" y1="1408" x2="960" y2="1408" stroke="rgba(148,163,184,0.10)" stroke-width="1"/></g><rect x="56.0" y="56.0" width="848.0" height="108" rx="22" fill="#121b29" fill-opacity="0.18" stroke="#334155" stroke-width="1.2"/><rect x="370.0" y="68.0" width="220" height="8" rx="4" fill="url(#heroGrad)" filter="url(#accentGlow)"/><text x="480.0" y="96.0" fill="#56aefc" font-size="13" font-weight="700" text-anchor="middle" font-family="IBM Plex Sans, Segoe UI, sans-serif"><tspan x="480.0" dy="0">Broader Poster</tspan></text><text x="480.0" y="128.0" fill="#f3f7fc" font-size="30" font-weight="700" text-anchor="middle" font-family="IBM Plex Sans, Segoe UI, sans-serif"><tspan x="480.0" dy="0">Power Delivery Infographic</tspan></text><text x="480.0" y="160.0" fill="#92a4b8" font-size="15" font-weight="500" text-anchor="middle" font-family="IBM Plex Sans, Segoe UI, sans-serif"><tspan x="480.0" dy="0">Compiler First Seed</tspan></text><rect x="56.0" y="194.0" width="848.0" height="188.0" rx="24" fill="url(#panelGrad)" stroke="#8bcaff" stroke-width="1.5" filter="url(#softShadow)"/><rect x="76.0" y="214.0" width="8" height="148.0" rx="4" fill="#56aefc" filter="url(#accentGlow)"/><rect x="74.0" y="212.0" width="812.0" height="10" rx="5" fill="#56aefc" opacity="0.9"/><text x="100.0" y="252.0" fill="#f3f7fc" font-size="24" font-weight="700" text-anchor="start" font-family="IBM Plex Sans, Segoe UI, sans-serif"><tspan x="100.0" dy="0">Overview</tspan></text><text x="100.0" y="306.0" fill="#8bcaff" font-size="18" font-weight="700" text-anchor="start" font-family="IBM Plex Sans, Segoe UI, sans-serif"><tspan x="100.0" dy="0">Power Delivery Infographic</tspan></text><text x="100.0" y="328.0" fill="#92a4b8" font-size="15" font-weight="500" text-anchor="start" font-family="IBM Plex Sans, Segoe UI, sans-serif"><tspan x="100.0" dy="0">Stacked Explainer Contract</tspan></text><rect x="56.0" y="408.0" width="848.0" height="228.0" rx="24" fill="url(#panelGrad)" stroke="#8bcaff" stroke-width="1.5" filter="url(#softShadow)"/><text x="90.0" y="450.0" fill="#f3f7fc" font-size="24" font-weight="700" text-anchor="start" font-family="IBM Plex Sans, Segoe UI, sans-serif"><tspan x="90.0" dy="0">Coverage</tspan></text><text x="90.0" y="474.0" fill="#92a4b8" font-size="13" font-weight="500" text-anchor="start" font-family="IBM Plex Sans, Segoe UI, sans-serif"><tspan x="90.0" dy="0">Broader Assets</tspan></text><rect x="92.0" y="502.0" width="776.0" height="46.0" rx="12" fill="#192638" fill-opacity="0.80" stroke="#334155" stroke-width="1"/><rect x="92.0" y="502.0" width="433.1" height="46.0" rx="12" fill="#ffb400" fill-opacity="0.20" stroke="#ffb400" stroke-width="1.2"/><text x="108.0" y="522.0" fill="#f3f7fc" font-size="14" font-weight="700" text-anchor="start" font-family="IBM Plex Sans, Segoe UI, sans-serif"><tspan x="108.0" dy="0">Baseline</tspan></text><text x="108.0" y="540.0" fill="#ffb400" font-size="18" font-weight="700" text-anchor="start" font-family="IBM Plex Mono, SFMono-Regular, monospace"><tspan x="108.0" dy="0">48 Units</tspan></text><text x="854.0" y="532.0" fill="#92a4b8" font-size="13" font-weight="500" text-anchor="end" font-family="IBM Plex Sans, Segoe UI, sans-serif"><tspan x="854.0" dy="0">Current Surface</tspan></text><rect x="92.0" y="582.0" width="776.0" height="46.0" rx="12" fill="#192638" fill-opacity="0.80" stroke="#334155" stroke-width="1"/><rect x="92.0" y="582.0" width="776.0" height="46.0" rx="12" fill="#47b475" fill-opacity="0.20" stroke="#47b475" stroke-width="1.2"/><text x="108.0" y="602.0" fill="#f3f7fc" font-size="14" font-weight="700" text-anchor="start" font-family="IBM Plex Sans, Segoe UI, sans-serif"><tspan x="108.0" dy="0">Expanded</tspan></text><text x="108.0" y="620.0" fill="#47b475" font-size="18" font-weight="700" text-anchor="start" font-family="IBM Plex Mono, SFMono-Regular, monospace"><tspan x="108.0" dy="0">86 Units</tspan></text><text x="854.0" y="612.0" fill="#92a4b8" font-size="13" font-weight="500" text-anchor="end" font-family="IBM Plex Sans, Segoe UI, sans-serif"><tspan x="854.0" dy="0">Broader Contract</tspan></text><text x="480.0" y="612.0" fill="#47b475" font-size="18" font-weight="700" text-anchor="middle" font-family="IBM Plex Sans, Segoe UI, sans-serif"><tspan x="480.0" dy="0">1.8x More Capacity</tspan></text><rect x="56.0" y="662.0" width="848.0" height="176.0" rx="24" fill="url(#panelGrad)" stroke="#8bcaff" stroke-width="1.5" filter="url(#softShadow)"/><rect x="74.0" y="680.0" width="812.0" height="10" rx="5" fill="#56aefc" opacity="0.9"/><rect x="830.0" y="680.0" width="56" height="24" rx="12" fill="#56aefc" fill-opacity="0.14" stroke="#56aefc" stroke-width="1"/><text x="858.0" y="697.0" fill="#56aefc" font-size="9" font-weight="700" text-anchor="middle" font-family="IBM Plex Sans, Segoe UI, sans-serif"><tspan x="858.0" dy="0">NOTE</tspan></text><text x="100.0" y="720.0" fill="#f3f7fc" font-size="24" font-weight="700" text-anchor="start" font-family="IBM Plex Sans, Segoe UI, sans-serif"><tspan x="100.0" dy="0">Next Move</tspan></text><text x="100.0" y="774.0" fill="#56aefc" font-size="18" font-weight="700" text-anchor="start" font-family="IBM Plex Sans, Segoe UI, sans-serif"><tspan x="100.0" dy="0">Freeze The Wider DSL</tspan></text><text x="100.0" y="784.0" fill="#92a4b8" font-size="15" font-weight="500" text-anchor="start" font-family="IBM Plex Sans, Segoe UI, sans-serif"><tspan x="100.0" dy="0">Then Scale The Dataset</tspan></text><text x="480.0" y="1396.0" fill="#92a4b8" font-size="13" font-weight="500" text-anchor="middle" font-family="IBM Plex Sans, Segoe UI, sans-serif"><tspan x="480.0" dy="0">Power Delivery Infographic Poster Contract</tspan></text></svg>